<svg width="900" height="700" viewBox="0 0 900 700" fill="none" xmlns="http://www.w3.org/2000/svg">
  <rect width="900" height="700" rx="36" fill="#07111E"/>
  <circle cx="710" cy="120" r="96" fill="#43E7A7" opacity="0.16"/>
  <rect x="88" y="98" width="724" height="506" rx="32" fill="#0C1A2C" stroke="#1C4461"/>
  <rect x="128" y="156" width="330" height="386" rx="28" fill="#10243A"/>
  <rect x="490" y="156" width="272" height="178" rx="24" fill="#112740"/>
  <rect x="490" y="362" width="272" height="180" rx="24" fill="#112740"/>
  <path d="M270 204C325 204 370 249 370 304V418H170V304C170 249 215 204 270 204Z" fill="#14324A"/>
  <circle cx="270" cy="230" r="56" fill="#203B57"/>
  <rect x="514" y="206" width="224" height="14" rx="7" fill="#275777"/>
  <rect x="514" y="236" width="170" height="14" rx="7" fill="#1E425D"/>
  <path d="M590 396H662L674 420L626 486L578 420L590 396Z" fill="#50D7FF"/>
  <path d="M607 421H645L651 431L626 465L601 431L607 421Z" fill="#07111F"/>
</svg>
