<svg width="900" height="700" viewBox="0 0 900 700" fill="none" xmlns="http://www.w3.org/2000/svg">
  <rect width="900" height="700" rx="36" fill="#07111F"/>
  <rect x="88" y="98" width="724" height="504" rx="32" fill="#0C1A2B" stroke="#1B425F"/>
  <rect x="130" y="140" width="230" height="180" rx="24" fill="#10253C"/>
  <rect x="388" y="140" width="372" height="180" rx="24" fill="#10253C"/>
  <rect x="130" y="350" width="630" height="206" rx="24" fill="#10253C"/>
  <rect x="162" y="184" width="166" height="18" rx="9" fill="#255675"/>
  <rect x="162" y="220" width="132" height="18" rx="9" fill="#1C3D56"/>
  <rect x="422" y="186" width="54" height="96" rx="18" fill="#50D7FF"/>
  <rect x="494" y="164" width="54" height="118" rx="18" fill="#43E7A7"/>
  <rect x="566" y="212" width="54" height="70" rx="18" fill="#2F6DFF"/>
  <rect x="638" y="196" width="54" height="86" rx="18" fill="#24C7C4"/>
  <circle cx="216" cy="452" r="46" fill="#50D7FF"/>
  <circle cx="366" cy="452" r="46" fill="#43E7A7"/>
  <circle cx="516" cy="452" r="46" fill="#2F6DFF"/>
  <circle cx="666" cy="452" r="46" fill="#24C7C4"/>
</svg>
