<svg width="900" height="700" viewBox="0 0 900 700" fill="none" xmlns="http://www.w3.org/2000/svg">
  <rect width="900" height="700" rx="36" fill="#08111F"/>
  <rect x="92" y="106" width="716" height="488" rx="32" fill="#0C1A2B" stroke="#1B425F"/>
  <rect x="128" y="142" width="292" height="416" rx="26" fill="#112740"/>
  <rect x="480" y="142" width="292" height="416" rx="26" fill="#112740"/>
  <rect x="444" y="210" width="28" height="280" rx="14" fill="#16354E"/>
  <circle cx="274" cy="226" r="58" fill="#50D7FF"/>
  <circle cx="626" cy="226" r="58" fill="#43E7A7"/>
  <rect x="176" y="330" width="196" height="16" rx="8" fill="#25516F"/>
  <rect x="528" y="330" width="196" height="16" rx="8" fill="#25516F"/>
  <rect x="176" y="370" width="164" height="16" rx="8" fill="#1A3951"/>
  <rect x="528" y="370" width="164" height="16" rx="8" fill="#1A3951"/>
  <rect x="176" y="430" width="70" height="70" rx="18" fill="#2F6DFF"/>
  <rect x="270" y="430" width="70" height="70" rx="18" fill="#24C7C4"/>
  <rect x="528" y="430" width="70" height="70" rx="18" fill="#50D7FF"/>
  <rect x="622" y="430" width="70" height="70" rx="18" fill="#43E7A7"/>
</svg>
