<svg width="900" height="700" viewBox="0 0 900 700" fill="none" xmlns="http://www.w3.org/2000/svg">
  <rect width="900" height="700" rx="36" fill="#08111D"/>
  <rect x="90" y="98" width="720" height="504" rx="30" fill="#0C192B" stroke="#1B415E"/>
  <rect x="132" y="142" width="280" height="170" rx="24" fill="#11253C"/>
  <rect x="132" y="338" width="280" height="220" rx="24" fill="#11253C"/>
  <rect x="444" y="142" width="324" height="416" rx="24" fill="#10233A"/>
  <rect x="474" y="412" width="42" height="114" rx="18" fill="#2F6DFF"/>
  <rect x="534" y="342" width="42" height="184" rx="18" fill="#50D7FF"/>
  <rect x="594" y="280" width="42" height="246" rx="18" fill="#43E7A7"/>
  <rect x="654" y="226" width="42" height="300" rx="18" fill="#24C7C4"/>
  <circle cx="242" cy="214" r="24" fill="#50D7FF"/>
  <rect x="196" y="256" width="152" height="16" rx="8" fill="#2A5674"/>
  <rect x="166" y="396" width="210" height="20" rx="10" fill="#1E425D"/>
  <rect x="166" y="430" width="178" height="20" rx="10" fill="#1A354B"/>
  <rect x="166" y="464" width="132" height="20" rx="10" fill="#1A354B"/>
</svg>
